# xmcd
#
# Track frame offsets:
#	150
#	20295
#	40225
#	59470
#	76042
#	93200
#	114530
#	133330
#	149777
#	164330
#	182132
#
# Disc length: 2628 seconds
#
# Revision: 0
# Processed by: cddbd v1.5.2PL0 Copyright (c) Steve Scherf et al.
# Submitted via: EZCDAudioConverter 3.1.7.1
#
DISCID=950a420b
DTITLE=Gerson Ruffino - A Cruz
DYEAR=2010
DGENRE=Gospel
TTITLE0=Quem Te Viu...
TTITLE1=O Olhar De Jesus
TTITLE2=Segredos
TTITLE3=Novamente Feliz
TTITLE4=Fiel
TTITLE5=A Cruz
TTITLE6=Protegido
TTITLE7=Mãe
TTITLE8=Efeito Da Cruz
TTITLE9=Felicidade
TTITLE10=Saindo Da Caverna
EXTD=
EXTT0=
EXTT1=
EXTT2=
EXTT3=
EXTT4=
EXTT5=
EXTT6=
EXTT7=
EXTT8=
EXTT9=
EXTT10=
PLAYORDER=
